<?xml version="1.0" encoding="utf-8"?>
<!-- Generator: Adobe Illustrator 17.0.2, SVG Export Plug-In . SVG Version: 6.00 Build 0)  -->
<!DOCTYPE svg PUBLIC "-//W3C//DTD SVG 1.1//EN" "http://www.w3.org/Graphics/SVG/1.1/DTD/svg11.dtd">
<svg version="1.1" id="Layer_1" xmlns="http://www.w3.org/2000/svg" xmlns:xlink="http://www.w3.org/1999/xlink" x="0px" y="0px"
	 width="1268px" height="1268px" viewBox="0 0 1268 1268" enable-background="new 0 0 1268 1268" xml:space="preserve">
<path fill="#0099CC" d="M634,0C283.852,0,0,283.851,0,634s283.852,634,634,634s634-283.852,634-634S984.149,0,634,0z"/>
<g>
	<path fill="#FFFFFF" d="M392.059,347.051h-73.008l-16.611,44.604h-6.05l55.781-149.297h6.768l55.884,149.297h-6.05L392.059,347.051
		z M321.102,341.514h68.906l-31.274-84.082l-2.871-8.408h-0.615l-2.769,8.408L321.102,341.514z"/>
	<path fill="#FFFFFF" d="M440.663,280.708l0.718,22.866c3.349-7.929,8.237-14.063,14.663-18.405
		c6.425-4.341,14.355-6.512,23.789-6.512c12.1,0,21.174,3.812,27.224,11.434c6.05,7.623,9.075,19.705,9.075,36.247v65.317h-5.537
		v-65.522c0-15.381-2.752-26.215-8.254-32.505c-5.503-6.288-12.971-9.434-22.405-9.434c-11.963,0-20.987,3.573-27.07,10.715
		c-6.085,7.145-9.879,16.288-11.382,27.43v69.316h-5.537V280.708H440.663z"/>
	<path fill="#FFFFFF" d="M545.765,336.08c0-17.567,3.691-31.531,11.074-41.887c7.383-10.357,17.637-15.535,30.762-15.535
		c8.681,0,16.184,1.948,22.507,5.845c6.322,3.896,11.364,9.229,15.125,15.996v-68.804h5.537v159.961h-5.332l-0.205-17.227
		c-3.691,5.947-8.767,10.664-15.227,14.15s-13.997,5.229-22.61,5.229c-13.058,0-23.26-4.989-30.608-14.971
		c-7.349-9.979-11.023-23.515-11.023-40.605V336.08z M551.508,338.233c0,15.313,3.025,27.48,9.075,36.504
		s14.953,13.535,26.711,13.535c9.639,0,17.653-2.187,24.045-6.562c6.391-4.374,11.023-10.219,13.894-17.534v-51.987
		c-2.666-7.929-6.973-14.576-12.92-19.944c-5.947-5.365-14.219-8.049-24.814-8.049c-11.758,0-20.697,4.804-26.814,14.406
		c-6.119,9.605-9.177,22.098-9.177,37.479V338.233z"/>
	<path fill="#FFFFFF" d="M714.75,284.708l-7.178-0.615c-9.913,0-17.962,3.196-24.148,9.587
		c-6.188,6.394-10.203,14.817-12.048,25.276v72.7h-5.537V280.708h4.512l1.025,19.277v3.794c3.076-7.929,7.655-14.099,13.74-18.509
		c6.083-4.408,13.569-6.613,22.456-6.613c1.572,0,3.025,0.12,4.358,0.359c1.333,0.24,2.477,0.496,3.435,0.769L714.75,284.708z"/>
	<path fill="#FFFFFF" d="M724.799,334.029c0-16.269,4.494-29.564,13.484-39.888c8.988-10.321,20.662-15.483,35.017-15.483
		c14.422,0,26.129,5.162,35.119,15.483c8.988,10.323,13.484,23.619,13.484,39.888v4.307c0,16.339-4.496,29.669-13.484,39.99
		c-8.989,10.323-20.628,15.483-34.914,15.483c-14.424,0-26.147-5.16-35.171-15.483c-9.023-10.321-13.535-23.651-13.535-39.99
		V334.029z M730.336,338.335c0,13.945,3.896,25.755,11.689,35.428c7.793,9.674,18.286,14.509,31.479,14.509
		c12.987,0,23.378-4.853,31.171-14.561c7.793-9.706,11.689-21.498,11.689-35.376v-4.307c0-13.603-3.932-25.31-11.792-35.119
		c-7.862-9.809-18.287-14.715-31.274-14.715c-13.058,0-23.481,4.906-31.274,14.715c-7.793,9.81-11.689,21.517-11.689,35.119V338.335
		z"/>
	<path fill="#FFFFFF" d="M855.33,245.845h-5.537v-14.15h5.537V245.845z M855.33,391.656h-5.537V280.708h5.537V391.656z"/>
	<path fill="#FFFFFF" d="M886.605,336.08c0-17.567,3.691-31.531,11.074-41.887c7.383-10.357,17.637-15.535,30.762-15.535
		c8.681,0,16.184,1.948,22.508,5.845c6.321,3.896,11.363,9.229,15.124,15.996v-68.804h5.537v159.961h-5.332l-0.205-17.227
		c-3.691,5.947-8.767,10.664-15.228,14.15c-6.459,3.486-13.996,5.229-22.609,5.229c-13.058,0-23.261-4.989-30.607-14.971
		c-7.35-9.979-11.023-23.515-11.023-40.605V336.08z M892.347,338.233c0,15.313,3.025,27.48,9.074,36.504
		c6.051,9.023,14.953,13.535,26.712,13.535c9.639,0,17.652-2.187,24.046-6.562c6.391-4.374,11.022-10.219,13.894-17.534v-51.987
		c-2.666-7.929-6.973-14.576-12.92-19.944c-5.947-5.365-14.22-8.049-24.814-8.049c-11.759,0-20.697,4.804-26.813,14.406
		c-6.119,9.605-9.178,22.098-9.178,37.479V338.233z"/>
</g>
<g>
	<path fill="#FFFFFF" d="M272.909,979.152h-5.537L171.6,840.109l-0.615,0.205v138.838h-5.64V829.855h5.64l95.771,138.735
		l0.615-0.205v-138.53h5.537V979.152z"/>
	<path fill="#FFFFFF" d="M302.337,921.525c0-16.269,4.494-29.564,13.484-39.888c8.988-10.321,20.662-15.483,35.017-15.483
		c14.423,0,26.13,5.162,35.12,15.483c8.988,10.323,13.484,23.619,13.484,39.888v4.307c0,16.339-4.496,29.669-13.484,39.99
		c-8.99,10.323-20.628,15.483-34.915,15.483c-14.424,0-26.147-5.16-35.171-15.483c-9.023-10.321-13.535-23.651-13.535-39.99V921.525
		z M307.875,925.832c0,13.945,3.896,25.755,11.689,35.428c7.793,9.674,18.286,14.509,31.479,14.509
		c12.987,0,23.379-4.853,31.172-14.561c7.793-9.706,11.689-21.498,11.689-35.376v-4.307c0-13.603-3.932-25.31-11.792-35.119
		c-7.862-9.809-18.287-14.715-31.274-14.715c-13.058,0-23.481,4.906-31.274,14.715c-7.793,9.81-11.689,21.517-11.689,35.119V925.832
		z"/>
	<path fill="#FFFFFF" d="M474.911,872.204l-7.178-0.615c-9.913,0-17.962,3.196-24.148,9.587
		c-6.188,6.394-10.203,14.817-12.048,25.276v72.7H426V868.205h4.512l1.025,19.277v3.794c3.076-7.929,7.655-14.099,13.74-18.509
		c6.083-4.408,13.569-6.613,22.456-6.613c1.572,0,3.025,0.12,4.358,0.359c1.333,0.24,2.477,0.496,3.435,0.769L474.911,872.204z"/>
	<path fill="#FFFFFF" d="M508.954,838.263v29.941h27.275v5.64h-27.275v76.699c0,9.093,1.538,15.57,4.614,19.431
		c3.076,3.863,7.143,5.794,12.202,5.794c1.846,0,3.486-0.067,4.922-0.205c1.436-0.136,3.417-0.375,5.947-0.718l1.025,5.024
		c-1.709,0.546-3.486,0.923-5.332,1.128s-3.932,0.308-6.255,0.308c-7.452,0-13.109-2.426-16.97-7.28
		c-3.863-4.853-5.793-12.68-5.793-23.481v-76.699h-20.508v-5.64h20.508v-29.941H508.954z"/>
	<path fill="#FFFFFF" d="M567.914,891.583c3.417-8.065,8.442-14.32,15.073-18.765c6.63-4.442,14.73-6.665,24.302-6.665
		c11.552,0,20.319,3.658,26.301,10.972c5.981,7.315,8.972,18.834,8.972,34.556v67.471h-5.64v-67.676
		c0-14.561-2.684-24.83-8.049-30.812c-5.367-5.981-12.527-8.973-21.482-8.973c-11.963,0-21.123,3.573-27.48,10.715
		c-6.357,7.145-10.356,16.288-11.997,27.43v69.316h-5.537V819.191h5.537V891.583z"/>
	<path fill="#FFFFFF" d="M810.829,904.093h-74.854v69.521h85.312v5.537h-90.85V829.855h90.85v5.537h-85.312v63.164h74.854V904.093z"
		/>
	<path fill="#FFFFFF" d="M916.751,958.644c-3.829,6.7-9.536,12.15-17.124,16.355c-7.588,4.203-16.783,6.306-27.583,6.306
		c-10.323,0-18.424-2.819-24.302-8.46c-5.88-5.639-8.818-13.243-8.818-22.814c0-9.296,4.392-17.089,13.176-23.379
		c8.783-6.288,19.772-9.434,32.967-9.434h31.685v-16.201c0-9.229-2.958-16.422-8.87-21.584c-5.913-5.161-14.236-7.742-24.968-7.742
		c-10.049,0-18.134,2.428-24.251,7.28c-6.118,4.854-9.177,11.109-9.177,18.765l-4.614-0.205l-0.205-0.513
		c-0.41-8.613,2.938-15.909,10.049-21.892c7.108-5.981,16.509-8.973,28.198-8.973c11.895,0,21.431,3.009,28.608,9.023
		c7.178,6.017,10.767,14.698,10.767,26.045v55.576c0,3.896,0.221,7.69,0.667,11.382c0.443,3.691,1.179,7.35,2.204,10.972h-6.152
		c-0.89-4.853-1.487-8.493-1.794-10.92c-0.309-2.426-0.462-5.041-0.462-7.845V958.644z M872.044,975.871
		c11.005,0,20.318-2.426,27.942-7.28c7.621-4.853,13.209-11.792,16.765-20.815v-24.917h-31.377c-11.484,0-21.175,2.65-29.069,7.946
		c-7.896,5.299-11.844,11.844-11.844,19.637c0,7.452,2.512,13.553,7.537,18.303C857.022,973.497,863.704,975.871,872.044,975.871z"
		/>
	<path fill="#FFFFFF" d="M1025.955,951.979c0-5.878-2.513-11.228-7.536-16.048c-5.025-4.818-13.792-8.595-26.302-11.33
		c-13.194-2.802-22.748-6.408-28.659-10.818c-5.914-4.408-8.87-10.953-8.87-19.636c0-7.929,3.349-14.576,10.049-19.944
		c6.698-5.365,15.722-8.049,27.07-8.049c12.235,0,21.874,2.871,28.916,8.613c7.04,5.742,10.39,13.228,10.049,22.456l-0.205,0.615
		h-4.717c0-7.245-3.061-13.415-9.177-18.509c-6.119-5.091-14.407-7.639-24.866-7.639c-10.392,0-18.252,2.24-23.584,6.717
		c-5.332,4.478-7.998,9.656-7.998,15.534c0,5.812,2.256,10.767,6.768,14.868s13.466,7.69,26.865,10.767
		c12.372,2.871,21.754,6.785,28.147,11.741c6.391,4.957,9.587,11.878,9.587,20.764c0,8.683-3.556,15.724-10.664,21.123
		c-7.11,5.401-16.544,8.101-28.301,8.101c-12.92,0-23.056-2.887-30.403-8.665c-7.349-5.775-10.784-12.799-10.305-21.071l0.205-0.615
		h4.512c0.546,8.751,4.307,15.073,11.279,18.97s15.209,5.845,24.712,5.845c10.254,0,18.388-2.392,24.404-7.178
		C1022.946,963.806,1025.955,958.269,1025.955,951.979z"/>
	<path fill="#FFFFFF" d="M1073.944,838.263v29.941h27.275v5.64h-27.275v76.699c0,9.093,1.538,15.57,4.614,19.431
		c3.076,3.863,7.143,5.794,12.202,5.794c1.846,0,3.486-0.067,4.922-0.205c1.436-0.136,3.417-0.375,5.947-0.718l1.025,5.024
		c-1.71,0.546-3.486,0.923-5.332,1.128s-3.932,0.308-6.255,0.308c-7.452,0-13.109-2.426-16.97-7.28
		c-3.863-4.853-5.794-12.68-5.794-23.481v-76.699h-20.508v-5.64h20.508v-29.941H1073.944z"/>
</g>
<g>
	<path fill="#FFFFFF" d="M681.253,468.436l14.946-27.295c0.797-1.426,0.276-3.253-1.165-4.043c-1.462-0.787-3.266-0.25-4.036,1.184
		l-15.102,27.569c-12.702-5.637-26.922-8.812-41.956-8.797c-15.002-0.013-29.198,3.146-41.863,8.767l-15.112-27.507
		c-0.78-1.451-2.601-1.981-4.023-1.182c-1.453,0.775-1.985,2.598-1.179,4.022l14.954,27.272
		c-29.381,15.156-49.23,44.008-49.215,77.134l192.896-0.02C730.403,512.417,710.589,483.625,681.253,468.436 M590.067,510.612
		c-4.442-0.01-8.061-3.621-8.062-8.081c0.002-4.443,3.618-8.096,8.069-8.096c4.472-0.004,8.09,3.653,8.096,8.094
		C598.172,506.986,594.546,510.61,590.067,510.612 M677.899,510.597c-4.459,0.005-8.097-3.605-8.088-8.086
		c0-4.433,3.624-8.088,8.092-8.103c4.435,0.013,8.074,3.669,8.07,8.109C685.975,506.98,682.357,510.598,677.899,510.597"/>
	<path fill="#FFFFFF" d="M538.323,691.965c-0.011,12.654,10.203,22.87,22.846,22.865l15.559,0.001l0.018,47.448
		c-0.003,11.811,9.594,21.415,21.398,21.416c11.833,0,21.419-9.612,21.409-21.433l0.002-47.437l28.911-0.005l-0.002,47.446
		c0.01,11.813,9.62,21.426,21.42,21.406c11.832,0.007,21.424-9.605,21.422-21.426l-0.013-47.434l15.616-0.005
		c12.6,0.005,22.849-10.235,22.848-22.861l-0.024-138.976l-191.445,0.035L538.323,691.965z"/>
	<path fill="#FFFFFF" d="M681.253,468.436l14.946-27.295c0.798-1.426,0.274-3.243-1.172-4.048c-1.458-0.772-3.259-0.247-4.03,1.189
		l-15.097,27.58c-12.706-5.652-26.919-8.825-41.961-8.807c-15.002-0.013-29.212,3.146-41.863,8.767l-15.112-27.507
		c-0.787-1.452-2.594-1.977-4.022-1.186c-1.455,0.783-1.986,2.602-1.18,4.025l14.953,27.274
		c-29.381,15.153-49.23,44.006-49.215,77.132l192.896-0.02C730.403,512.417,710.589,483.625,681.253,468.436z M590.067,510.612
		c-4.442-0.01-8.061-3.621-8.062-8.081c0.002-4.443,3.612-8.097,8.069-8.096c4.472-0.004,8.09,3.653,8.096,8.094
		C598.172,506.986,594.546,510.61,590.067,510.612z M677.899,510.597c-4.459,0.005-8.089-3.611-8.088-8.086
		c0.015-4.43,3.624-8.088,8.092-8.103c4.435,0.013,8.074,3.669,8.07,8.109C685.983,506.981,682.357,510.598,677.899,510.597z"/>
	<path fill="#FFFFFF" d="M538.289,553.007l0.033,138.972c-0.01,12.641,10.214,22.844,22.849,22.847l15.558,0.006l0.018,47.448
		c-0.003,11.811,9.6,21.416,21.398,21.416c11.833,0,21.419-9.612,21.422-21.431l-0.012-47.439l28.911-0.005l0.012,47.446
		c-0.003,11.806,9.606,21.426,21.406,21.406c11.832,0.007,21.424-9.605,21.422-21.426l-0.013-47.434l15.612-0.012
		c12.604,0.005,22.857-10.213,22.86-22.854l-0.024-138.974L538.289,553.007z"/>
	<path fill="#FFFFFF" d="M508.563,681.478c11.825,0,21.412-9.565,21.415-21.42l0.016-89.675
		c-0.003-11.815-9.587-21.419-21.412-21.413l-0.018-0.007l-354.831-0.011c-11.825-0.006-21.41,9.598-21.412,21.413l0.016,89.675
		c0.003,11.855,9.59,21.421,21.415,21.42L508.563,681.478z"/>
	<path fill="#FFFFFF" d="M1114.248,681.451c11.825,0,21.412-9.565,21.415-21.42l0.016-89.675
		c-0.003-11.815-9.587-21.419-21.412-21.413l-0.018-0.007l-354.831-0.011c-11.825-0.006-21.41,9.598-21.412,21.413l0.016,89.675
		c0.003,11.855,9.59,21.421,21.415,21.42L1114.248,681.451z"/>
</g>
</svg>
